<svg width="116" height="120" viewBox="0 0 116 120" fill="none" xmlns="http://www.w3.org/2000/svg">
<path d="M116 60C116 76.5685 109.508 91.5685 99.0122 102.426C88.5163 113.284 74.0163 120 58 120C41.9837 120 27.4837 113.284 16.9878 102.426C6.49187 91.5685 0 76.5685 0 60C0 43.4315 6.49187 28.4315 16.9878 17.5736C27.4837 6.71573 41.9837 0 58 0C74.0163 0 88.5163 6.71573 99.0122 17.5736C109.508 28.4315 116 43.4315 116 60Z" fill="#E5E5E5"/>
<path d="M115.5 60C115.5 76.4361 109.06 91.3122 98.6527 102.079C88.2452 112.845 73.8727 119.5 58 119.5C42.1273 119.5 27.7548 112.845 17.3473 102.079C6.93953 91.3122 0.5 76.4361 0.5 60C0.5 43.5639 6.93953 28.6878 17.3473 17.9211C27.7548 7.15475 42.1273 0.5 58 0.5C73.8727 0.5 88.2452 7.15475 98.6527 17.9211C109.06 28.6878 115.5 43.5639 115.5 60Z" stroke="black" stroke-opacity="0.3"/>
<path d="M44.9692 55.61C43.4292 57.69 42.6592 59.11 42.6592 59.87C42.6592 60.13 42.7892 60.26 43.0492 60.26C43.7492 60.26 45.0792 59.7 47.0392 58.58C48.9992 57.46 50.0492 56.9 50.1892 56.9C50.4692 56.9 50.6092 57.02 50.6092 57.26V57.32C50.5892 57.44 50.0292 57.88 48.9292 58.64C47.8292 59.4 46.4592 60.17 44.8192 60.95C43.1792 61.73 41.8092 62.12 40.7092 62.12C38.9692 62.12 38.0992 61.11 38.0992 59.09C38.0992 57.27 39.0692 55.17 41.0092 52.79C42.9692 50.39 45.2592 48.35 47.8792 46.67C50.4992 44.99 52.7292 44.15 54.5692 44.15C55.3692 44.15 55.9492 44.38 56.3092 44.84C56.6692 45.3 56.8492 45.73 56.8492 46.13C56.8492 46.93 56.3492 47.86 55.3492 48.92C54.3692 49.98 53.2092 50.97 51.8692 51.89C50.5292 52.79 49.2092 53.59 47.9092 54.29C46.6292 54.97 45.6492 55.41 44.9692 55.61ZM54.4492 46.55C54.1292 46.55 53.3592 47.07 52.1392 48.11C50.9392 49.15 49.8192 50.2 48.7792 51.26L47.2192 52.82C47.0592 52.98 46.9792 53.11 46.9792 53.21C46.9792 53.29 47.0692 53.33 47.2492 53.33C48.0492 53.33 49.4692 52.38 51.5092 50.48C53.5492 48.58 54.5692 47.31 54.5692 46.67C54.5692 46.59 54.5292 46.55 54.4492 46.55ZM57.2416 54.89C57.2416 55.43 57.5616 55.7 58.2016 55.7C58.8016 55.7 59.4616 55.55 60.1816 55.25C60.9016 54.95 61.2916 54.8 61.3516 54.8C61.4116 54.8 61.4716 54.85 61.5316 54.95C61.6116 55.05 61.6516 55.15 61.6516 55.25C61.6516 55.47 61.1816 55.76 60.2416 56.12C59.3216 56.46 58.6516 56.63 58.2316 56.63C57.8116 56.63 57.5116 56.63 57.3316 56.63C57.1716 56.61 57.0416 56.71 56.9416 56.93C55.4616 59.71 53.9916 61.46 52.5316 62.18C51.8916 62.5 51.2116 62.66 50.4916 62.66C49.7916 62.66 49.2116 62.43 48.7516 61.97C48.3116 61.49 48.0916 60.74 48.0916 59.72C48.0916 58.3 48.5516 56.98 49.4716 55.76C50.4116 54.52 51.4716 53.59 52.6516 52.97C53.8316 52.35 54.9016 52.04 55.8616 52.04C57.4816 52.22 58.2916 52.71 58.2916 53.51C58.2916 53.73 58.2316 53.93 58.1116 54.11C58.0116 54.27 57.9216 54.37 57.8416 54.41C57.7816 54.43 57.7016 54.45 57.6016 54.47C57.3616 54.53 57.2416 54.67 57.2416 54.89ZM54.7816 56.27C54.1416 56.75 53.5116 57.36 52.8916 58.1C52.2916 58.84 51.9916 59.45 51.9916 59.93C51.9916 60.39 52.1216 60.62 52.3816 60.62C52.7816 60.62 53.5116 60.01 54.5716 58.79C55.6516 57.55 56.1916 56.53 56.1916 55.73C56.1916 55.61 56.1116 55.55 55.9516 55.55C55.8116 55.55 55.4216 55.79 54.7816 56.27ZM63.4211 60.2C62.2211 60.94 61.2511 61.31 60.5111 61.31C59.7711 61.31 59.2111 61.05 58.8311 60.53C58.4511 60.01 58.2611 59.54 58.2611 59.12C58.2611 58.7 58.3911 58.22 58.6511 57.68C58.9111 57.14 59.3111 56.54 59.8511 55.88C60.4111 55.22 61.0511 54.6 61.7711 54.02C62.4911 53.44 63.3711 52.96 64.4111 52.58C65.4711 52.18 66.5711 51.98 67.7111 51.98C68.1911 51.98 68.7411 52.16 69.3611 52.52C69.9811 52.86 70.2911 53.28 70.2911 53.78C70.2911 54.12 70.0111 54.36 69.4511 54.5C67.9311 54.92 66.4311 55.57 64.9511 56.45C63.4911 57.31 62.7611 58.11 62.7611 58.85C62.7611 59.05 62.8511 59.15 63.0311 59.15C63.6711 59.15 64.8311 58.46 66.5111 57.08C68.2111 55.7 69.0911 55.01 69.1511 55.01C69.4311 55.01 69.5711 55.2 69.5711 55.58C69.5711 56.46 69.1211 57.84 68.2211 59.72C67.3211 61.6 66.2111 63.5 64.8911 65.42C63.5911 67.36 62.0811 69.06 60.3611 70.52C58.6411 71.98 57.0611 72.71 55.6211 72.71C55.4011 72.71 55.1411 72.48 54.8411 72.02C54.5211 71.58 54.3611 71.22 54.3611 70.94C54.3611 70.66 54.3711 70.49 54.3911 70.43C54.5911 69.71 55.8811 68.48 58.2611 66.74C59.2411 66.04 60.2111 65.31 61.1711 64.55C62.1311 63.81 62.9411 63.01 63.6011 62.15C64.2611 61.31 64.5911 60.52 64.5911 59.78C64.5911 59.74 64.5211 59.72 64.3811 59.72C64.2411 59.72 63.9211 59.88 63.4211 60.2ZM78.9213 54.89C78.9213 55.43 79.2413 55.7 79.8813 55.7C80.4813 55.7 81.1413 55.55 81.8613 55.25C82.5813 54.95 82.9713 54.8 83.0313 54.8C83.0913 54.8 83.1513 54.85 83.2113 54.95C83.2913 55.05 83.3313 55.15 83.3313 55.25C83.3313 55.47 82.8613 55.76 81.9213 56.12C81.0013 56.46 80.3313 56.63 79.9113 56.63C79.4913 56.63 79.1913 56.63 79.0113 56.63C78.8513 56.61 78.7213 56.71 78.6213 56.93C77.1413 59.71 75.6713 61.46 74.2113 62.18C73.5713 62.5 72.8913 62.66 72.1713 62.66C71.4713 62.66 70.8913 62.43 70.4313 61.97C69.9913 61.49 69.7712 60.74 69.7712 59.72C69.7712 58.3 70.2313 56.98 71.1513 55.76C72.0913 54.52 73.1513 53.59 74.3313 52.97C75.5113 52.35 76.5813 52.04 77.5413 52.04C79.1613 52.22 79.9713 52.71 79.9713 53.51C79.9713 53.73 79.9113 53.93 79.7913 54.11C79.6913 54.27 79.6013 54.37 79.5213 54.41C79.4613 54.43 79.3813 54.45 79.2813 54.47C79.0413 54.53 78.9213 54.67 78.9213 54.89ZM76.4613 56.27C75.8213 56.75 75.1913 57.36 74.5713 58.1C73.9713 58.84 73.6713 59.45 73.6713 59.93C73.6713 60.39 73.8013 60.62 74.0613 60.62C74.4613 60.62 75.1913 60.01 76.2513 58.79C77.3313 57.55 77.8713 56.53 77.8713 55.73C77.8713 55.61 77.7913 55.55 77.6313 55.55C77.4913 55.55 77.1013 55.79 76.4613 56.27Z" fill="black"/>
</svg>
