<svg width="194" height="45" viewBox="0 0 194 45" fill="none" xmlns="http://www.w3.org/2000/svg">
<path d="M53.8684 0H47.3645C37.1005 0 30.7147 11.4999 27.8527 18.2432C24.9905 11.4999 18.6047 0 8.34067 0H1.83675C0.822251 0 0 0.821638 0 1.83675V12.6766C0 19.2139 3.49962 22.3364 6.43504 23.8036C8.97741 25.0747 11.5048 25.303 12.3662 25.3437C9.56149 28.2783 8.67128 32.0855 8.67128 34.3564V43.0283C8.67128 43.9537 9.36129 44.7358 10.2809 44.8506C10.3299 44.8567 11.4977 45 13.2178 45C15.9191 45 19.8415 44.6486 23.1856 42.9768C25.2029 41.9688 26.7635 40.5961 27.8527 38.9087C28.9422 40.5961 30.5026 41.9688 32.5199 42.9768C35.864 44.6486 39.7861 45 42.4876 45C44.2077 45 45.3762 44.8564 45.4246 44.8506C46.3442 44.7358 47.0342 43.9537 47.0342 43.0283V34.3564C47.0342 32.0855 46.144 28.2783 43.3393 25.3437C44.2007 25.303 46.7281 25.0747 49.2704 23.8036C52.2062 22.3364 55.7055 19.2142 55.7055 12.6766V1.83675C55.7052 0.821638 54.8829 0 53.8684 0ZM3.67349 12.6766V3.67349H8.34067C17.4317 3.67349 23.2159 16.3106 25.2623 21.6797H19.1812H12.684C12.6601 21.6785 10.2702 21.6476 7.97791 20.4672C5.12146 18.9966 3.67349 16.3752 3.67349 12.6766ZM21.5429 39.6909C18.8392 41.0433 15.5233 41.3268 13.2178 41.3268C12.9035 41.3268 12.6111 41.3207 12.3448 41.3124V34.3564C12.3448 34.0634 12.4262 27.2341 19.415 25.3532H26.0157V32.1872C26.0157 35.7318 24.5527 38.1866 21.5429 39.6909ZM43.3604 41.3124C43.0944 41.3207 42.802 41.3268 42.4873 41.3268C40.1819 41.3268 36.866 41.0433 34.1623 39.6909C31.1525 38.1866 29.6895 35.7315 29.6895 32.1872V25.3532H36.2905C43.2128 27.2188 43.3576 34.0707 43.3607 34.3564V41.3124H43.3604ZM52.0317 12.6766C52.0317 16.3752 50.5837 18.9966 47.7273 20.4672C45.4577 21.6366 43.0922 21.6785 43.023 21.6797H36.524H30.4429C32.4896 16.3106 38.2735 3.67349 47.3645 3.67349H52.0317V12.6766ZM93.6934 19.0155C95.146 20.2244 95.873 22.2657 95.873 25.138V42.037C95.873 42.8538 95.1215 43.2615 93.6199 43.2615H93.0811C91.579 43.2615 90.8281 42.8538 90.8281 42.037V25.7264C90.8281 24.3883 90.4769 23.3503 89.7753 22.6162C89.0728 21.8821 88.0362 21.5135 86.6651 21.5135C85.4568 21.5135 84.3952 21.8649 83.4814 22.5669C82.567 23.2701 81.8323 24.0115 81.2776 24.7958V25.236V42.037C81.2776 42.8538 80.5261 43.2615 79.0245 43.2615H78.5344C77.0323 43.2615 76.2816 42.8538 76.2816 42.037V25.7264C76.2816 24.3883 75.9305 23.3503 75.2286 22.6162C74.526 21.8821 73.4733 21.5135 72.0697 21.5135C71.155 21.5135 70.3061 21.7348 69.5227 22.1747C68.7387 22.6159 68.1023 23.0894 67.6125 23.5955C67.1227 24.1024 66.8288 24.4695 66.7309 24.6981V42.0373C66.7309 42.8541 65.9793 43.2618 64.4778 43.2618H63.939C62.4369 43.2618 61.6862 42.8541 61.6862 42.0373V25.3343C61.6862 23.1794 61.5883 21.6118 61.392 20.6325C61.1961 19.6532 61.0982 19.0982 61.0982 18.9678C61.0982 18.5098 61.5062 18.1832 62.3227 17.9873C63.1385 17.791 63.89 17.6943 64.5757 17.6943C65.0655 17.6943 65.4243 17.9383 65.6536 18.4284C65.8814 18.9188 66.0531 19.4163 66.1679 19.922C66.2818 20.4289 66.3552 20.7638 66.3883 20.9264C67.2369 19.8813 68.3065 18.9999 69.5965 18.2811C70.8859 17.5636 72.2659 17.2036 73.7353 17.2036C75.2699 17.2036 76.6573 17.506 77.8989 18.11C79.1393 18.714 80.0369 19.734 80.5928 21.1713C81.5393 20.0282 82.6989 19.0823 84.0701 18.3301C85.4415 17.5792 86.8619 17.2036 88.3313 17.2036C90.4525 17.2039 92.2402 17.8091 93.6934 19.0155ZM99.9331 30.5264C99.9331 26.1189 100.929 22.7956 102.921 20.5593C104.912 18.3231 107.77 17.2039 111.492 17.2039C114.921 17.2039 117.484 18.3148 119.182 20.5342C120.88 22.7561 121.729 25.9058 121.729 29.9883C121.729 30.3146 121.492 30.7716 121.019 31.3588C120.545 31.9472 120.162 32.2413 119.868 32.2413H105.223C105.419 34.7225 106.087 36.5271 107.231 37.6536C108.374 38.7802 110.039 39.3434 112.227 39.3434C113.468 39.3434 114.554 39.1965 115.484 38.9023C116.415 38.6081 117.214 38.2901 117.884 37.9481C118.553 37.6049 118.937 37.4326 119.035 37.4326C119.394 37.4326 119.811 37.8091 120.284 38.5604C120.757 39.3113 120.994 39.8663 120.994 40.2251C120.994 40.7476 120.561 41.2619 119.697 41.7676C118.831 42.2746 117.713 42.6909 116.341 43.0172C114.97 43.3436 113.582 43.5064 112.178 43.5064C104.014 43.5055 99.9331 39.1803 99.9331 30.5264ZM116.586 28.3226C116.586 26.0699 116.153 24.3479 115.289 23.1556C114.423 21.9632 113.125 21.3678 111.394 21.3678C107.704 21.3678 105.647 23.6864 105.223 28.3226H116.586ZM127.489 41.865C126.215 40.7721 125.579 38.9507 125.579 36.4037V7.50617C125.579 6.69066 126.313 6.28168 127.783 6.28168H128.322C129.823 6.28168 130.574 6.69066 130.574 7.50617V36.1588C130.574 37.3356 130.786 38.1593 131.211 38.6329C131.635 39.1065 132.223 39.3431 132.975 39.3431C133.431 39.3431 133.815 39.3024 134.126 39.2201C134.436 39.1399 134.672 39.0982 134.836 39.0982C135.162 39.0982 135.44 39.4497 135.669 40.1516C135.897 40.8535 136.011 41.3844 136.011 41.7431C136.011 42.9187 134.705 43.5058 132.093 43.5058C130.297 43.5055 128.762 42.9603 127.489 41.865ZM138.719 13.0893V9.90588C138.719 9.09037 139.584 8.68139 141.315 8.68139C143.013 8.68139 143.862 9.09037 143.862 9.90588V13.089C143.862 13.9057 143.013 14.3135 141.315 14.3135C139.585 14.3138 138.719 13.906 138.719 13.0893ZM138.769 42.037V18.6736C138.769 17.8581 139.519 17.4491 141.022 17.4491H141.512C143.013 17.4491 143.765 17.8581 143.765 18.6736V42.037C143.765 42.8538 143.013 43.2615 141.512 43.2615H141.022C139.519 43.2615 138.769 42.8538 138.769 42.037ZM149.872 41.621C148.435 40.3644 147.717 38.5598 147.717 36.2075C147.717 32.9105 149.088 30.6005 151.831 29.2778C154.574 27.955 158.411 27.2772 163.342 27.2448V25.1377C163.342 23.9959 162.95 23.0809 162.166 22.3958C161.382 21.7094 160.125 21.3675 158.395 21.3675C157.056 21.3675 155.888 21.5218 154.893 21.8328C153.896 22.1438 153.048 22.4689 152.346 22.8121C151.643 23.1553 151.244 23.3264 151.146 23.3264C150.786 23.3264 150.37 22.9425 149.897 22.1747C149.423 21.4082 149.187 20.8284 149.187 20.436C149.187 19.9792 149.619 19.4983 150.485 18.9914C151.35 18.4856 152.493 18.061 153.913 17.7179C155.334 17.3747 156.844 17.2036 158.444 17.2036C161.677 17.2036 164.133 17.8973 165.815 19.2855C167.497 20.6738 168.338 22.592 168.338 25.041V35.5221C168.338 37.7103 168.436 39.2935 168.632 40.2731C168.828 41.2524 168.926 41.8087 168.926 41.9388C168.926 42.3955 168.525 42.7221 167.726 42.918C166.925 43.1143 166.183 43.2122 165.497 43.2122C164.974 43.2122 164.607 42.967 164.395 42.4769C164.182 41.9877 164.019 41.4652 163.905 40.9105C163.79 40.3555 163.717 39.9789 163.684 39.7839C162.803 40.8291 161.701 41.7104 160.378 42.4279C159.056 43.1467 157.513 43.5055 155.75 43.5055C153.268 43.5055 151.309 42.8776 149.872 41.621ZM160.354 38.4125C161.432 37.8241 162.427 37.0242 163.342 36.0125V31.1145C160.174 31.1145 157.643 31.4157 155.75 32.0197C153.855 32.6249 152.909 33.8898 152.909 35.8163C152.909 36.926 153.227 37.7834 153.864 38.3871C154.501 38.9923 155.407 39.2935 156.583 39.2935C158.019 39.2938 159.277 38.9997 160.354 38.4125ZM173.716 42.037V25.3343C173.716 23.1794 173.618 21.6118 173.422 20.6325C173.226 19.6532 173.128 19.0982 173.128 18.9678C173.128 18.5098 173.536 18.1832 174.352 17.9873C175.168 17.791 175.92 17.6943 176.605 17.6943C177.095 17.6943 177.446 17.9227 177.658 18.3794C177.87 18.8374 178.033 19.3266 178.148 19.8491C178.262 20.3717 178.336 20.7304 178.369 20.9267C179.348 19.7836 180.507 18.8784 181.846 18.2086C183.185 17.5388 184.54 17.2042 185.912 17.2042C188.392 17.2042 190.311 17.8979 191.667 19.2862C193.022 20.6744 193.7 22.6247 193.7 25.1383V42.0373C193.7 42.8541 192.948 43.2618 191.446 43.2618H190.908C189.406 43.2618 188.655 42.8541 188.655 42.0373V25.7264C188.655 24.3883 188.279 23.3503 187.528 22.6162C186.776 21.8821 185.683 21.5135 184.246 21.5135C183.201 21.5135 182.189 21.816 181.21 22.4199C180.23 23.0252 179.413 23.8 178.761 24.7471V42.037C178.761 42.8538 178.009 43.2615 176.507 43.2615H175.969C174.467 43.2615 173.716 42.8538 173.716 42.037Z" fill="url(#paint0_linear)"/>
<defs>
<linearGradient id="paint0_linear" x1="41.7522" y1="76.8698" x2="145.502" y2="-26.8797" gradientUnits="userSpaceOnUse">
<stop stop-color="#24D9C5"/>
<stop offset="1" stop-color="#5A3AE4"/>
</linearGradient>
</defs>
</svg>
