<svg width="116" height="120" viewBox="0 0 116 120" fill="none" xmlns="http://www.w3.org/2000/svg">
<path d="M116 60C116 76.5685 109.508 91.5685 99.0122 102.426C88.5163 113.284 74.0163 120 58 120C41.9837 120 27.4837 113.284 16.9878 102.426C6.49187 91.5685 0 76.5685 0 60C0 43.4315 6.49187 28.4315 16.9878 17.5736C27.4837 6.71573 41.9837 0 58 0C74.0163 0 88.5163 6.71573 99.0122 17.5736C109.508 28.4315 116 43.4315 116 60Z" fill="#E5E5E5"/>
<path d="M115.5 60C115.5 76.4361 109.06 91.3122 98.6527 102.079C88.2452 112.845 73.8727 119.5 58 119.5C42.1273 119.5 27.7548 112.845 17.3473 102.079C6.93953 91.3122 0.5 76.4361 0.5 60C0.5 43.5639 6.93953 28.6878 17.3473 17.9211C27.7548 7.15475 42.1273 0.5 58 0.5C73.8727 0.5 88.2452 7.15475 98.6527 17.9211C109.06 28.6878 115.5 43.5639 115.5 60Z" stroke="black" stroke-opacity="0.3"/>
<path fill-rule="evenodd" clip-rule="evenodd" d="M55 51H61L62.83 53H66C67.1 53 68 53.9 68 55V67C68 68.1 67.1 69 66 69H50C48.9 69 48 68.1 48 67V55C48 53.9 48.9 53 50 53H53.17L55 51ZM61.95 55L60.12 53H55.88L54.05 55H50V67H66V55H61.95ZM58 58C59.65 58 61 59.35 61 61C61 62.65 59.65 64 58 64C56.35 64 55 62.65 55 61C55 59.35 56.35 58 58 58ZM53 61C53 58.24 55.24 56 58 56C60.76 56 63 58.24 63 61C63 63.76 60.76 66 58 66C55.24 66 53 63.76 53 61Z" fill="black" fill-opacity="0.54"/>
</svg>
