<svg width="130" height="130" viewBox="0 0 130 130" fill="none" xmlns="http://www.w3.org/2000/svg">
<g filter="url(#filter0_d)">
<circle cx="65" cy="65" r="61" fill="#F0F2F5"/>
<circle cx="65" cy="65" r="60.5" stroke="#FAFCFF"/>
</g>
<path d="M42.6861 90.112C41.0647 90.112 40.2541 89.248 40.2541 87.52V82.064C40.2541 81.904 40.3181 81.7867 40.4461 81.712C40.5847 81.6373 40.8034 81.6 41.1021 81.6H41.4061C41.9714 81.6 42.2541 81.7547 42.2541 82.064V87.248C42.2541 88.0373 42.6541 88.432 43.4541 88.432C43.7634 88.432 44.0514 88.336 44.3181 88.144C44.5954 87.952 44.8194 87.7173 44.9901 87.44V82.064C44.9901 81.7547 45.2727 81.6 45.8381 81.6H46.1581C46.7234 81.6 47.0061 81.7547 47.0061 82.064V87.344C47.0061 88.0693 47.0381 88.6027 47.1021 88.944C47.1661 89.2747 47.1981 89.4773 47.1981 89.552C47.1981 89.7013 47.0221 89.8187 46.6701 89.904C46.3181 89.9787 46.0034 90.016 45.7261 90.016C45.5554 90.016 45.4327 89.9413 45.3581 89.792C45.2834 89.632 45.2247 89.4613 45.1821 89.28C45.1501 89.0987 45.1287 88.976 45.1181 88.912C44.8301 89.264 44.4674 89.552 44.0301 89.776C43.6034 90 43.1554 90.112 42.6861 90.112ZM50.6643 93.312C50.3656 93.312 50.147 93.2747 50.0083 93.2C49.8803 93.1253 49.8163 93.008 49.8163 92.848V84.32C49.8163 83.6053 49.7843 83.0827 49.7203 82.752C49.6563 82.4213 49.6243 82.2187 49.6243 82.144C49.6243 81.9947 49.8003 81.8827 50.1523 81.808C50.5043 81.7227 50.8136 81.68 51.0803 81.68C51.2616 81.68 51.3896 81.7547 51.4643 81.904C51.539 82.0533 51.5923 82.2133 51.6243 82.384C51.667 82.544 51.6936 82.656 51.7043 82.72C51.971 82.3467 52.2963 82.0533 52.6803 81.84C53.075 81.6267 53.507 81.52 53.9763 81.52C54.5843 81.52 55.1176 81.696 55.5763 82.048C56.035 82.3893 56.387 82.8853 56.6323 83.536C56.8883 84.1867 57.0163 84.9493 57.0163 85.824C57.0163 87.1573 56.7176 88.208 56.1203 88.976C55.5336 89.7333 54.723 90.112 53.6883 90.112C52.9843 90.112 52.3603 89.9093 51.8163 89.504V92.848C51.8163 93.1573 51.5336 93.312 50.9683 93.312H50.6643ZM53.2403 88.48C54.3816 88.48 54.9523 87.6053 54.9523 85.856C54.9523 84.9813 54.8243 84.32 54.5683 83.872C54.3123 83.4133 53.9336 83.184 53.4323 83.184C53.123 83.184 52.8296 83.2747 52.5523 83.456C52.2856 83.6373 52.0403 83.8827 51.8163 84.192V88.032C52.243 88.3307 52.7176 88.48 53.2403 88.48ZM61.6122 90.112C60.9295 90.112 60.3855 89.92 59.9802 89.536C59.5749 89.1413 59.3722 88.5173 59.3722 87.664V78.4C59.3722 78.1013 59.6549 77.952 60.2202 77.952H60.5242C61.0895 77.952 61.3722 78.1013 61.3722 78.4V87.632C61.3722 87.9413 61.4309 88.1653 61.5482 88.304C61.6655 88.432 61.8362 88.496 62.0602 88.496C62.1669 88.496 62.2682 88.4853 62.3642 88.464C62.4602 88.4427 62.5295 88.432 62.5722 88.432C62.7002 88.432 62.8069 88.5707 62.8922 88.848C62.9775 89.1147 63.0202 89.312 63.0202 89.44C63.0202 89.888 62.5509 90.112 61.6122 90.112ZM67.5269 90.112C66.2789 90.112 65.3296 89.744 64.6789 89.008C64.0283 88.272 63.7029 87.2107 63.7029 85.824C63.7029 84.4267 64.0283 83.36 64.6789 82.624C65.3296 81.888 66.2789 81.52 67.5269 81.52C68.7643 81.52 69.7029 81.888 70.3429 82.624C70.9936 83.36 71.3189 84.4267 71.3189 85.824C71.3189 87.2213 70.9936 88.288 70.3429 89.024C69.7029 89.7493 68.7643 90.112 67.5269 90.112ZM67.5109 88.496C68.1083 88.496 68.5456 88.2773 68.8229 87.84C69.1109 87.392 69.2549 86.7147 69.2549 85.808C69.2549 84.912 69.1109 84.2453 68.8229 83.808C68.5456 83.36 68.1083 83.136 67.5109 83.136C66.9136 83.136 66.4709 83.36 66.1829 83.808C65.8949 84.2453 65.7509 84.912 65.7509 85.808C65.7509 86.7147 65.8949 87.392 66.1829 87.84C66.4709 88.2773 66.9136 88.496 67.5109 88.496ZM75.7403 90.112C74.9296 90.112 74.311 89.904 73.8843 89.488C73.4576 89.0613 73.2443 88.4853 73.2443 87.76C73.2443 85.7973 74.8603 84.8107 78.0923 84.8V84.192C78.0923 83.488 77.6176 83.136 76.6683 83.136C76.2736 83.136 75.927 83.184 75.6283 83.28C75.3296 83.3653 75.0683 83.4613 74.8443 83.568C74.6203 83.664 74.4923 83.712 74.4603 83.712C74.3216 83.712 74.1616 83.5627 73.9803 83.264C73.8096 82.9653 73.7243 82.7413 73.7243 82.592C73.7243 82.4213 73.8576 82.256 74.1243 82.096C74.4016 81.9253 74.775 81.7867 75.2443 81.68C75.7136 81.5733 76.2203 81.52 76.7643 81.52C77.895 81.52 78.7323 81.7547 79.2763 82.224C79.831 82.6827 80.1083 83.3173 80.1083 84.128V87.344C80.1083 88.0693 80.1403 88.6027 80.2043 88.944C80.2683 89.2747 80.3003 89.4773 80.3003 89.552C80.3003 89.7013 80.1243 89.8187 79.7723 89.904C79.4203 89.9787 79.1056 90.016 78.8283 90.016C78.6576 90.016 78.535 89.9413 78.4603 89.792C78.3856 89.632 78.327 89.4613 78.2843 89.28C78.2523 89.0987 78.231 88.976 78.2203 88.912C77.9963 89.2 77.6763 89.472 77.2603 89.728C76.855 89.984 76.3483 90.112 75.7403 90.112ZM76.2843 88.496C76.6576 88.496 76.999 88.4 77.3083 88.208C77.6176 88.0053 77.879 87.7493 78.0923 87.44V86.224C77.2176 86.224 76.5296 86.3253 76.0283 86.528C75.5376 86.72 75.2923 87.0667 75.2923 87.568C75.2923 87.856 75.3776 88.0853 75.5483 88.256C75.719 88.416 75.9643 88.496 76.2843 88.496ZM85.4991 90.112C84.9017 90.112 84.3737 89.9413 83.9151 89.6C83.4564 89.248 83.0991 88.752 82.8431 88.112C82.5871 87.4613 82.4591 86.6933 82.4591 85.808C82.4591 84.4747 82.7577 83.4293 83.3551 82.672C83.9524 81.904 84.7684 81.52 85.8031 81.52C86.5177 81.52 87.1364 81.7227 87.6591 82.128V78.4C87.6591 78.1013 87.9417 77.952 88.5071 77.952H88.8271C89.3924 77.952 89.6751 78.1013 89.6751 78.4V87.344C89.6751 88.0693 89.7071 88.6027 89.7711 88.944C89.8351 89.2747 89.8671 89.4773 89.8671 89.552C89.8671 89.7013 89.6911 89.8187 89.3391 89.904C88.9871 89.9787 88.6724 90.016 88.3951 90.016C88.2244 90.016 88.1017 89.9413 88.0271 89.792C87.9524 89.632 87.8937 89.4613 87.8511 89.28C87.8191 89.0987 87.7977 88.976 87.7871 88.912C87.5311 89.2853 87.2004 89.5787 86.7951 89.792C86.4004 90.0053 85.9684 90.112 85.4991 90.112ZM86.0591 88.448C86.6457 88.448 87.1791 88.112 87.6591 87.44V83.6C87.2324 83.3013 86.7631 83.152 86.2511 83.152C85.0991 83.152 84.5231 84.0267 84.5231 85.776C84.5231 86.6507 84.6511 87.3173 84.9071 87.776C85.1631 88.224 85.5471 88.448 86.0591 88.448Z" fill="#B0B3B9"/>
<path d="M53.0406 54.2928C52.6501 54.6833 52.6501 55.3165 53.0406 55.707L53.8595 56.5259C54.2498 56.9162 54.8825 56.9165 55.2731 56.5266L61.7104 50.1008C62.3406 49.4717 63.4168 49.9181 63.4168 50.8086V66.6666C63.4168 67.2189 63.8645 67.6666 64.4168 67.6666H65.5835C66.1358 67.6666 66.5835 67.2189 66.5835 66.6666V50.8147C66.5835 49.9234 67.6615 49.4774 68.2912 50.1082L74.7114 56.5399C75.1018 56.931 75.7355 56.9313 76.1262 56.5405L76.9597 55.707C77.3502 55.3165 77.3502 54.6833 76.9597 54.2928L65.7073 43.0404C65.3167 42.6498 64.6836 42.6498 64.2931 43.0404L53.0406 54.2928Z" fill="#B0B3B9"/>
<defs>
<filter id="filter0_d" x="0" y="0" width="130" height="130" filterUnits="userSpaceOnUse" color-interpolation-filters="sRGB">
<feFlood flood-opacity="0" result="BackgroundImageFix"/>
<feColorMatrix in="SourceAlpha" type="matrix" values="0 0 0 0 0 0 0 0 0 0 0 0 0 0 0 0 0 0 127 0"/>
<feOffset/>
<feGaussianBlur stdDeviation="2"/>
<feColorMatrix type="matrix" values="0 0 0 0 0.34902 0 0 0 0 0.223529 0 0 0 0 0.890196 0 0 0 0.55 0"/>
<feBlend mode="normal" in2="BackgroundImageFix" result="effect1_dropShadow"/>
<feBlend mode="normal" in="SourceGraphic" in2="effect1_dropShadow" result="shape"/>
</filter>
</defs>
</svg>
